<?xml version="1.0" encoding="UTF-8" standalone="no"?>
<svg
   xmlns:dc="http://purl.org/dc/elements/1.1/"
   xmlns:cc="http://creativecommons.org/ns#"
   xmlns:rdf="http://www.w3.org/1999/02/22-rdf-syntax-ns#"
   xmlns:svg="http://www.w3.org/2000/svg"
   xmlns="http://www.w3.org/2000/svg"
   xmlns:sodipodi="http://sodipodi.sourceforge.net/DTD/sodipodi-0.dtd"
   xmlns:inkscape="http://www.inkscape.org/namespaces/inkscape"
   width="769.03625"
   height="414.18451"
   viewBox="0 0 1374.8134 740.44158"
   version="1.1"
   id="svg26"
   sodipodi:docname="background.svg"
   inkscape:version="1.0 (4035a4f, 2020-05-01)">
  <metadata
     id="metadata32">
    <rdf:RDF>
      <cc:Work
         rdf:about="">
        <dc:format>image/svg+xml</dc:format>
        <dc:type
           rdf:resource="http://purl.org/dc/dcmitype/StillImage" />
        <dc:title></dc:title>
      </cc:Work>
    </rdf:RDF>
  </metadata>
  <defs
     id="defs30" />
  <sodipodi:namedview
     fit-margin-bottom="10"
     fit-margin-right="10"
     fit-margin-left="10"
     lock-margins="true"
     fit-margin-top="10"
     inkscape:document-rotation="0"
     pagecolor="#ffffff"
     bordercolor="#666666"
     borderopacity="1"
     objecttolerance="10"
     gridtolerance="10"
     guidetolerance="10"
     inkscape:pageopacity="0"
     inkscape:pageshadow="2"
     inkscape:window-width="1680"
     inkscape:window-height="918"
     id="namedview28"
     showgrid="false"
     inkscape:zoom="0.67883059"
     inkscape:cx="338.9937"
     inkscape:cy="100.89222"
     inkscape:window-x="0"
     inkscape:window-y="25"
     inkscape:window-maximized="1"
     inkscape:current-layer="svg26" />
  <path
     id="path10"
     style="fill:#ffff00;stroke-width:1"
     d="m 345.71933,374.41615 v 0 c 0,-0.7 -0.5,-1.2 -1.2,-1.2 -0.1,0 -0.3,0 -0.4,0.1 -1.6,0.19999 -14.3,0.10001 -22.2,0 -0.3,0 -0.6,0.10001 -0.9,0.4 -0.2,0.19999 -0.4,0.50001 -0.4,0.90001 0,0.19999 0,4.89998 0.1,5.89999 l 0.4,13.6 c 0,0.3 0.2,0.6 0.4,0.90001 0.2,0.19999 0.5,0.29999 0.8,0.29999 h 0.1 c 7.3,-0.69999 14.7,-0.9 22,-0.6 0.3,0 0.7,-0.1 0.9,-0.3 0.2,-0.19999 0.4,-0.59999 0.4,-0.9 -0.1,-6.09999 -0.1,-13.20001 0,-19.1 z" />
  <path
     id="path38"
     style="fill:#ffff00;stroke-width:1"
     d="m 1073.0771,199.85922 c 0,-0.0999 -4.9,-9.39999 -7,-14.19999 -0.1,-0.30001 -0.3,-1.10001 -0.4,-1.6 -0.1,-0.4 -0.3,-0.70001 -0.6,-0.9 -0.3,-0.19999 -0.6,-0.0999 -0.8,0.0999 l -13.1,12.3 v 0 c -0.2,0.19999 -0.3,0.5 -0.4,0.8 0,0.29999 0,0.69999 0.2,0.99999 0.1,0.0999 1.4,2.5 2.1,3.6 2.4,3.7 6.5,12.1 6.5,12.20001 0.2,0.29999 0.4,0.5 0.7,0.59999 0.3,0 0.5,-0.0999 0.7,-0.3 0,0 1.8,-2.5 2.7,-3.6 1.5,-1.6 3,-3.2 4.6,-4.69999 1.2,-1.2 1.6,-1.40001 2.1,-1.6 0.5,-0.3 1.1,-0.50001 2.5,-1.9 0.4,-0.5 0.5,-1.3 0.2,-1.80001 z" />
  <path
     id="path36"
     style="fill:#ffff00;stroke-width:1"
     d="m 949.2771,705.55923 c 2.50001,-1.2 24.8,-8.60001 25.6,-7.5 0.49999,0.7 -3.90001,23.79999 -4.60001,24.49999 -0.19999,0.30001 -16,-12.3 -20.99999,-16.99999 z" />
  <path
     fill="#55ffff"
     d="m 17.877095,354.15923 c 1.3,-2.5 14.3,-22 15.6,-21.6 0.8,0.3 11.5,21.2 11.5,22.1 -0.1,0.3 -20.3,0.1 -27.1,-0.5 z m 425.299995,328.4 c -0.1,-0.1 -6.7,-8.2 -9.7,-12.5 -0.2,-0.3 -0.5,-1 -0.7,-1.5 -0.2,-0.4 -0.4,-0.7 -0.7,-0.8 -0.3,-0.1 -0.6,0 -0.8,0.3 l -10.5,14.7 c 0,0 0,0 0,0 -0.2,0.2 -0.2,0.5 -0.2,0.9 0,0.3 0.2,0.7 0.4,0.9 0.1,0.1 1.8,2.2 2.8,3.1 3.1,3.1 8.8,10.5 8.9,10.6 0.2,0.3 0.5,0.4 0.8,0.4 0.3,0 0.5,-0.2 0.6,-0.5 0,0 1.2,-2.8 2,-4.1 1.1,-1.9 2.3,-3.7 3.5,-5.5 0.9,-1.4 1.3,-1.7 1.7,-2 0.5,-0.4 1,-0.7 2.1,-2.4 0.3,-0.3 0.2,-1.1 -0.2,-1.6 z m 131.1,-531.9 c 0,0 0,0 0,0 0.6,0.2 1.3,-0.2 1.4,-0.8 0,-0.1 0,-0.2 0,-0.4 0.2,-1.4 2.8,-12.6 4.5,-19.5 0.1,-0.3 0,-0.6 -0.2,-0.8 -0.2,-0.3 -0.5,-0.4 -0.8,-0.5 -0.2,0 -4.7,-1.1 -5.7,-1.3 l -13.4,-2.7 c -0.3,-0.1 -0.7,0 -0.9,0.2 -0.2,0.2 -0.4,0.4 -0.5,0.6 0,0 0,0.1 0,0.1 -0.8,6.5 -2.2,13.1 -3.9,19.4 -0.1,0.3 0,0.6 0.2,0.9 0.2,0.3 0.5,0.4 0.8,0.5 5.8,1.3 12.7,2.9 18.5,4.3 z m 1,-1.8 c -0.1,-0.1 -0.2,-0.2 -0.4,-0.2 0.2,0 0.3,0.1 0.4,0.2 z"
     id="path12" />
  <g
     transform="translate(-153.22291,-29.240773)"
     fill="#ffffff"
     id="g24">
    <path
       d="m 699.6,472.7 c -1.5,0 -2.8,-0.8 -3.5,-2.3 -0.8,-1.9 0,-4.2 1.9,-5 3.7,-1.6 6.8,-4.7 8.4,-8.5 1.6,-3.8 1.7,-8.1 0.2,-11.9 -0.3,-0.9 -0.8,-1.8 -1.2,-2.8 -0.8,-1.7 -1.8,-3.7 -2.3,-5.9 -0.9,-4.1 -0.2,-8.6 2,-12.8 1.7,-3.1 4.1,-6.1 7.6,-9.1 1.6,-1.4 4,-1.2 5.3,0.4 1.4,1.6 1.2,4 -0.4,5.3 -2.8,2.5 -4.7,4.7 -5.9,7 -1.4,2.6 -1.9,5.3 -1.3,7.6 0.3,1.4 1,2.8 1.7,4.3 0.5,1.1 1,2.2 1.5,3.3 2.1,5.6 2,12 -0.3,17.6 -2.3,5.5 -6.8,10.1 -12.3,12.5 -0.4,0.2 -0.9,0.3 -1.4,0.3 z m 40.8,-51.3 c 1.5,-0.2 3,0.5 3.8,1.9 1.1,1.8 0.4,4.2 -1.4,5.3 -3.7,2.1 -6.4,5.6 -7.6,9.5 -1.2,4 -0.8,8.4 1.1,12.1 0.4,0.9 1,1.7 1.6,2.7 1,1.7 2.2,3.5 3,5.7 1.4,4 1.2,8.7 -0.6,13.2 -1.4,3.4 -3.5,6.6 -6.8,10.1 -1.5,1.6 -3.9,1.7 -5.5,0.2 -1.6,-1.4 -1.7,-3.9 -0.2,-5.4 2.6,-2.8 4.3,-5.3 5.3,-7.7 1.1,-2.8 1.3,-5.6 0.5,-7.9 -0.5,-1.3 -1.3,-2.7 -2.2,-4.1 -0.6,-1 -1.3,-2.1 -1.9,-3.2 -2.8,-5.4 -3.4,-11.9 -1.7,-17.8 1.8,-5.9 5.8,-11 11.2,-14 0.4,-0.4 0.9,-0.6 1.4,-0.6 z M 261.3,590.9 c 5.7,6.8 9,15.7 9.4,22.4 0.5,7.3 -2.4,16.4 -10.2,20.4 -3,1.5 -6.7,2.2 -11.2,2.2 -7.9,-0.1 -12.9,-2.9 -15.4,-8.4 -2.1,-4.7 -2.3,-11.4 1.8,-15.9 3.2,-3.5 7.8,-4.1 11.2,-1.6 1.2,0.9 1.5,2.7 0.6,3.9 -0.9,1.2 -2.7,1.5 -3.9,0.6 -1.8,-1.3 -3.6,0.6 -3.8,0.8 -2.4,2.6 -2.1,7 -0.8,9.9 1.5,3.4 4.7,5 10.4,5.1 3.6,0 6.4,-0.5 8.6,-1.6 4.7,-2.4 7.7,-8.6 7.2,-15 -0.5,-7.3 -5.3,-18.2 -13,-23.9 -4.2,-3.1 -8.5,-4.1 -12.9,-3.1 -3.1,0.7 -6.2,2.4 -9.7,5 -6.6,5.1 -11.7,11.8 -14.2,19 -2.7,7.7 -2.1,15.8 1.9,23.9 0.7,1.4 0.1,3.1 -1.3,3.7 -1.4,0.7 -3.1,0.1 -3.7,-1.3 -4.6,-9.4 -5.4,-19.2 -2.2,-28.2 2.9,-8.2 8.6,-15.9 16.1,-21.6 4.1,-3.1 8,-5.1 11.8,-6 6,-1.4 12,0 17.5,4 2.1,1.7 4.1,3.6 5.8,5.7 z"
       id="path14" />
    <circle
       cx="1013.7"
       cy="153.89999"
       r="7.0999999"
       id="circle16" />
    <circle
       cx="1024.3"
       cy="132.10001"
       r="7.0999999"
       id="circle18" />
    <circle
       cx="1037.3"
       cy="148.89999"
       r="7.0999999"
       id="circle20" />
    <path
       d="m 1508.7,297.2 c -4.8,-5.4 -9.7,-10.8 -14.8,-16.2 5.6,-5.6 11.1,-11.5 15.6,-18.2 1.2,-1.7 0.7,-4.1 -1,-5.2 -1.7,-1.2 -4.1,-0.7 -5.2,1 -4.2,6.2 -9.1,11.6 -14.5,16.9 -4.8,-5 -9.7,-10 -14.7,-14.9 -1.5,-1.5 -3.9,-1.5 -5.3,0 -1.5,1.5 -1.5,3.9 0,5.3 4.9,4.8 9.7,9.8 14.5,14.8 -1.1,1.1 -2.3,2.2 -3.5,3.2 -4.1,3.8 -8.4,7.8 -12.4,12 -1.4,1.5 -1.4,3.8 0,5.3 0,0 0,0 0,0 1.5,1.4 3.9,1.4 5.3,-0.1 3.9,-4 8.1,-7.9 12.1,-11.7 1.2,-1.1 2.3,-2.2 3.5,-3.3 4.9,5.3 9.8,10.6 14.6,15.9 0.1,0.1 0.1,0.1 0.2,0.2 1.4,1.4 3.7,1.5 5.2,0.2 1.7,-1.2 1.8,-3.6 0.4,-5.2 z M 327.6,248.6 327.2,246 c -1.5,-11.1 -2.2,-23.2 -2.3,-37 0,-5.5 0,-11.5 0.2,-18.5 0,-0.7 0,-1.5 0,-2.3 0,-5 0,-11.2 3.9,-13.5 2.2,-1.3 5.1,-1 8.5,0.9 5.7,3.1 13.2,8.7 17.5,14.9 5.5,7.8 7.3,16.9 5,25.7 -3.2,12.3 -15,31 -30,32.1 z m 4.5,-69.4 c -0.2,0 -0.3,0 -0.4,0.1 -0.1,0.1 -0.7,0.5 -1.1,2.7 -0.3,1.9 -0.3,4.2 -0.3,6.3 0,0.8 0,1.7 0,2.4 -0.2,6.9 -0.2,12.8 -0.2,18.3 0.1,12.5 0.7,23.5 2,33.7 11,-2.7 20.4,-18.1 23,-27.8 1.9,-7.2 0.4,-14.8 -4.2,-21.3 v 0 C 347,188.1 340,183 335,180.3 c -1.4,-0.8 -2.4,-1.1 -2.9,-1.1 z M 516.3,60.8 c -0.1,0 -0.2,0 -0.4,-0.1 -2.4,-0.7 -4,-0.9 -6.7,-0.7 -0.7,0 -1.3,-0.5 -1.4,-1.2 0,-0.7 0.5,-1.3 1.2,-1.4 3.1,-0.2 4.9,0 7.6,0.8 0.7,0.2 1.1,0.9 0.9,1.6 -0.2,0.6 -0.7,1 -1.2,1 z m -10.2,9.7 c -0.5,0 -1,-0.3 -1.2,-0.8 -0.8,-2.1 -1.2,-4.3 -1.3,-6.6 0,-0.7 0.5,-1.3 1.2,-1.3 0.7,0 1.3,0.5 1.3,1.2 0.1,2 0.5,3.9 1.1,5.8 0.2,0.7 -0.1,1.4 -0.8,1.6 0,0.1 -0.2,0.1 -0.3,0.1 z m -12,-6.1 c -0.4,0 -0.8,-0.2 -1,-0.5 -0.4,-0.6 -0.3,-1.4 0.2,-1.8 1.8,-1.4 3.7,-2.6 5.8,-3.6 0.6,-0.3 1.4,0 1.7,0.6 0.3,0.6 0,1.4 -0.6,1.7 -1.9,0.9 -3.7,2 -5.3,3.3 -0.2,0.2 -0.5,0.3 -0.8,0.3 z m 6.4,-9.1 c -0.5,0 -0.9,-0.3 -1.2,-0.7 -0.5,-1 -1.2,-1.9 -2.4,-3.4 -0.3,-0.4 -0.7,-0.9 -1.1,-1.4 -0.4,-0.6 -0.3,-1.4 0.2,-1.8 0.6,-0.4 1.4,-0.3 1.8,0.2 0.4,0.5 0.8,1 1.1,1.4 1.3,1.6 2.1,2.6 2.7,3.9 0.3,0.6 0,1.4 -0.6,1.7 -0.1,0.1 -0.3,0.1 -0.5,0.1 z m 6.2,-0.3 c -0.3,0 -0.5,-0.1 -0.8,-0.2 -0.6,-0.4 -0.7,-1.2 -0.3,-1.8 1.2,-1.7 2.3,-3.4 3.3,-5.2 0.3,-0.6 1.1,-0.9 1.7,-0.5 0.6,0.3 0.9,1.1 0.5,1.7 -1,1.9 -2.2,3.8 -3.5,5.6 -0.2,0.2 -0.5,0.4 -0.9,0.4 z m 522.6,327.8 c -0.1,0 -0.2,0 -0.4,-0.1 -2.4,-0.7 -4,-0.9 -6.7,-0.7 -0.7,0 -1.3,-0.5 -1.4,-1.2 0,-0.7 0.5,-1.3 1.2,-1.4 3.1,-0.2 4.9,0 7.6,0.8 0.7,0.2 1.1,0.9 0.9,1.6 -0.2,0.6 -0.7,1 -1.2,1 z m -10.2,9.7 c -0.5,0 -1,-0.3 -1.2,-0.8 -0.8,-2.1 -1.2,-4.3 -1.3,-6.6 0,-0.7 0.5,-1.3 1.2,-1.3 0.7,0 1.3,0.5 1.3,1.2 0.1,2 0.5,3.9 1.1,5.8 0.2,0.7 -0.1,1.4 -0.8,1.6 0,0.1 -0.2,0.1 -0.3,0.1 z m -12,-6.1 c -0.4,0 -0.8,-0.2 -1,-0.5 -0.4,-0.6 -0.3,-1.4 0.2,-1.8 1.8,-1.4 3.7,-2.6 5.8,-3.6 0.6,-0.3 1.4,0 1.7,0.6 0.3,0.6 0,1.4 -0.6,1.7 -1.9,0.9 -3.7,2 -5.3,3.3 -0.2,0.2 -0.5,0.3 -0.8,0.3 z m 6.4,-9.1 c -0.5,0 -0.9,-0.3 -1.2,-0.7 -0.5,-1 -1.2,-1.9 -2.4,-3.4 -0.3,-0.4 -0.7,-0.9 -1.1,-1.4 -0.4,-0.6 -0.3,-1.4 0.2,-1.8 0.6,-0.4 1.4,-0.3 1.8,0.2 0.4,0.5 0.8,1 1.1,1.4 1.3,1.6 2.1,2.6 2.7,3.9 0.3,0.6 0,1.4 -0.6,1.7 -0.1,0.1 -0.3,0.1 -0.5,0.1 z m 6.2,-0.3 c -0.3,0 -0.5,-0.1 -0.8,-0.2 -0.6,-0.4 -0.7,-1.2 -0.3,-1.8 1.2,-1.7 2.3,-3.4 3.3,-5.2 0.3,-0.6 1.1,-0.9 1.7,-0.5 0.6,0.3 0.9,1.1 0.5,1.7 -1,1.9 -2.2,3.8 -3.5,5.6 -0.2,0.2 -0.5,0.4 -0.9,0.4 z m 310,196.4 c -1.4,0 -2.9,-0.2 -4.5,-0.7 -8.4,-2.7 -16.6,-12.7 -18.7,-20 -0.4,-1.4 -0.7,-2.9 -0.9,-4.4 -8.1,3.3 -15.5,10.6 -15.4,21 0,1.5 -1.2,2.7 -2.7,2.8 0,0 0,0 0,0 -1.5,0 -2.7,-1.2 -2.7,-2.7 -0.1,-6.7 2.4,-12.9 7,-18 3.6,-4 8.4,-7.1 13.7,-8.8 0.5,-6.5 3.1,-12.9 7.4,-17.4 7,-7.4 18.2,-8.9 27.3,-10.1 l 0.7,-0.1 c 1.5,-0.2 2.9,0.9 3.1,2.3 0.2,1.5 -0.9,2.9 -2.3,3.1 l -0.7,0.1 c -8.6,1.2 -18.4,2.5 -24,8.4 -3,3.2 -5,7.7 -5.7,12.4 7.9,-1 17.7,1.3 24.3,5.7 4.3,2.9 7.1,7.8 7.2,12.7 0.2,4.3 -1.7,8.3 -5.2,11.1 -2.4,1.6 -5,2.6 -7.9,2.6 z M 1311,546.7 c 0.1,1.5 0.4,3 0.8,4.4 1.7,5.8 8.7,14.2 15.1,16.3 2.8,0.9 5.1,0.5 7.2,-1.1 2.7,-2.1 3.2,-4.8 3.1,-6.6 -0.1,-3.2 -2,-6.4 -4.8,-8.3 -5.7,-3.9 -14.7,-5.8 -21.4,-4.7 z"
       id="path22" />
  </g>
</svg>
